<svg xmlns="http://www.w3.org/2000/svg" width="30.002" height="29.999" viewBox="0 0 30.002 29.999">
  <path id="Subtraction_16" data-name="Subtraction 16" d="M-9933-4811a14.9,14.9,0,0,1-10.606-4.394A14.9,14.9,0,0,1-9948-4826a14.9,14.9,0,0,1,4.394-10.606A14.9,14.9,0,0,1-9933-4841a14.9,14.9,0,0,1,10.608,4.394A14.9,14.9,0,0,1-9918-4826a14.9,14.9,0,0,1-4.394,10.606A14.9,14.9,0,0,1-9933-4811Zm-5.248-17.334a1.752,1.752,0,0,0-1.75,1.75v8.167a1.752,1.752,0,0,0,1.75,1.75h10.5a1.752,1.752,0,0,0,1.75-1.75v-8.167a1.752,1.752,0,0,0-1.75-1.75h-8.361v-2.334a3.114,3.114,0,0,1,3.111-3.11,3.115,3.115,0,0,1,3.113,3.11.779.779,0,0,0,.776.779.78.78,0,0,0,.779-.779,4.673,4.673,0,0,0-4.669-4.666,4.671,4.671,0,0,0-4.666,4.666v2.334Zm9.867,7a.589.589,0,0,1-.437-.195l-.292-.332-.292.33a.569.569,0,0,1-.437.2.584.584,0,0,1-.387-.147.577.577,0,0,1-.2-.4.579.579,0,0,1,.146-.424l.21-.234-.26-.12a.578.578,0,0,1-.3-.328.579.579,0,0,1,.019-.446.584.584,0,0,1,.529-.338.578.578,0,0,1,.244.054l.145.065v-.209a.583.583,0,0,1,.582-.582.584.584,0,0,1,.584.582v.209l.146-.065a.566.566,0,0,1,.245-.055.584.584,0,0,1,.528.34.575.575,0,0,1,.017.446.582.582,0,0,1-.3.328l-.26.12.21.234a.587.587,0,0,1-.05.824A.584.584,0,0,1-9928.382-4821.333Zm-3.891,0a.587.587,0,0,1-.437-.195l-.292-.332-.292.33a.569.569,0,0,1-.437.2.584.584,0,0,1-.387-.147.585.585,0,0,1-.05-.824l.21-.234-.26-.12a.579.579,0,0,1-.3-.328.58.58,0,0,1,.018-.446.585.585,0,0,1,.53-.338.578.578,0,0,1,.244.054l.145.065v-.209a.584.584,0,0,1,.584-.582.583.583,0,0,1,.582.582v.209l.145-.065a.572.572,0,0,1,.245-.055.584.584,0,0,1,.529.34.58.58,0,0,1,.018.446.574.574,0,0,1-.3.328l-.26.12.207.234a.587.587,0,0,1-.048.824A.587.587,0,0,1-9932.272-4821.333Zm-3.887,0a.585.585,0,0,1-.439-.195l-.29-.332-.292.33a.581.581,0,0,1-.437.2.573.573,0,0,1-.387-.147.576.576,0,0,1-.2-.4.584.584,0,0,1,.146-.425l.208-.234-.26-.12a.581.581,0,0,1-.3-.331.577.577,0,0,1,.021-.443.58.58,0,0,1,.528-.338.577.577,0,0,1,.243.054l.145.067v-.212a.584.584,0,0,1,.584-.582.583.583,0,0,1,.582.582v.212l.145-.067a.578.578,0,0,1,.244-.054.585.585,0,0,1,.53.338.581.581,0,0,1,.018.447.579.579,0,0,1-.3.327l-.259.12.209.234a.586.586,0,0,1-.05.824A.574.574,0,0,1-9936.159-4821.333Z" transform="translate(9948.001 4840.999)" fill="#00fbff"/>
</svg>
