<svg xmlns="http://www.w3.org/2000/svg" width="30.002" height="29.999" viewBox="0 0 30.002 29.999">
  <path id="Subtraction_20" data-name="Subtraction 20" d="M-9933-4811a14.9,14.9,0,0,1-10.606-4.394A14.9,14.9,0,0,1-9948-4826a14.9,14.9,0,0,1,4.394-10.606A14.9,14.9,0,0,1-9933-4841a14.9,14.9,0,0,1,10.608,4.394A14.9,14.9,0,0,1-9918-4826a14.9,14.9,0,0,1-4.394,10.606A14.9,14.9,0,0,1-9933-4811Zm-8-14.932v5.865a1.07,1.07,0,0,0,1.068,1.068h13.869a1.088,1.088,0,0,0,.774-.325,1.023,1.023,0,0,0,.294-.743v-5.865Zm1.068-3.735A1.068,1.068,0,0,0-9941-4828.6v1.6h16.006v-1.6a1.068,1.068,0,0,0-1.068-1.066Zm4.8-3.2a3.76,3.76,0,0,0-3.368,2.135h6.736A3.758,3.758,0,0,0-9935.131-4832.868Zm5.87-2.132a2.135,2.135,0,0,0-2.135,2.13,2.137,2.137,0,0,0,2.135,2.134,2.136,2.136,0,0,0,2.134-2.134A2.134,2.134,0,0,0-9929.261-4835Zm2.134,14.4h-2.137a.529.529,0,0,1-.379-.157.527.527,0,0,1-.152-.377v-2.134a.535.535,0,0,1,.531-.532h2.132a.535.535,0,0,1,.537.532v2.134A.534.534,0,0,1-9927.127-4820.6Zm-1.6-2.132v1.066h1.066v-1.066Zm-4.8,2.132h-5.354a.512.512,0,0,1-.527-.516.514.514,0,0,1,.494-.551h5.388a.513.513,0,0,1,.521.533A.513.513,0,0,1-9933.533-4820.6Zm-5.353-2.132h0a.514.514,0,0,1-.529-.516.515.515,0,0,1,.494-.553h2.205a.51.51,0,0,1,.529.534.51.51,0,0,1-.53.534h-2.169Z" transform="translate(9948.001 4840.999)" fill="#00fbff"/>
</svg>
