<svg xmlns="http://www.w3.org/2000/svg" width="30.002" height="29.999" viewBox="0 0 30.002 29.999">
  <path id="Subtraction_17" data-name="Subtraction 17" d="M-9933-4811a14.9,14.9,0,0,1-10.606-4.394A14.9,14.9,0,0,1-9948-4826a14.9,14.9,0,0,1,4.394-10.606A14.9,14.9,0,0,1-9933-4841a14.9,14.9,0,0,1,10.608,4.394A14.9,14.9,0,0,1-9918-4826a14.9,14.9,0,0,1-4.394,10.606A14.9,14.9,0,0,1-9933-4811Zm-8-18.013v10.451a1.228,1.228,0,0,0,.906,1.188,1.2,1.2,0,0,0,.31.04h14.226a1.225,1.225,0,0,0,1.219-1.228v-10.451Zm1.216-3.854a1.347,1.347,0,0,0-.31.04,1.227,1.227,0,0,0-.906,1.188v1.878h16.66v-1.878a1.225,1.225,0,0,0-1.219-1.228h-2.2v1.2a1.066,1.066,0,0,1-1.066,1.063,1.065,1.065,0,0,1-1.063-1.063v-1.2h-5.56v1.2a1.065,1.065,0,0,1-1.063,1.063,1.066,1.066,0,0,1-1.066-1.063v-1.2Zm10.957-1.119a.642.642,0,0,0-.642.642v1.678a.649.649,0,0,0,.642.647.646.646,0,0,0,.456-.191.636.636,0,0,0,.186-.456v-1.678A.642.642,0,0,0-9928.827-4833.986Zm-7.687-.013a.636.636,0,0,0-.323.088.637.637,0,0,0-.317.566v1.678a.636.636,0,0,0,.186.456.646.646,0,0,0,.456.191.639.639,0,0,0,.453-.191.636.636,0,0,0,.186-.456v-1.678a.632.632,0,0,0-.314-.566A.645.645,0,0,0-9936.515-4834Zm5.969,14.018a.211.211,0,0,1-.1-.026l-1.92-1.008a.213.213,0,0,0-.1-.025.215.215,0,0,0-.1.025l-1.917,1.008a.228.228,0,0,1-.105.026.215.215,0,0,1-.13-.043.22.22,0,0,1-.09-.217l.37-2.135a.228.228,0,0,0-.065-.195l-1.553-1.513a.223.223,0,0,1-.058-.228.221.221,0,0,1,.18-.152l2.147-.312a.225.225,0,0,0,.167-.122l.961-1.945a.222.222,0,0,1,.2-.123.223.223,0,0,1,.2.123l.961,1.945a.225.225,0,0,0,.167.122l2.147.312a.221.221,0,0,1,.175.152.221.221,0,0,1-.055.225l-1.551,1.513a.216.216,0,0,0-.064.195l.364,2.137a.217.217,0,0,1-.088.217A.216.216,0,0,1-9930.546-4819.982Z" transform="translate(9948.001 4840.999)" fill="#00fbff"/>
</svg>
