<svg id="Layer_2" data-name="Layer 2" xmlns="http://www.w3.org/2000/svg" width="30.001" height="30.001" viewBox="0 0 30.001 30.001">
  <g id="Layer_1_copy_6" data-name="Layer 1 copy 6">
    <g id="_57" data-name="57">
      <path id="Path_83031" data-name="Path 83031" d="M15,0A15,15,0,1,0,30,15,15,15,0,0,0,15,0Zm.193,22.36H11.921A3.821,3.821,0,0,1,8.1,18.539V11.462a3.821,3.821,0,0,1,3.821-3.821h3.273a1.187,1.187,0,0,1,0,2.374H11.921a1.447,1.447,0,0,0-1.447,1.447v7.077a1.447,1.447,0,0,0,1.447,1.447h3.273a1.187,1.187,0,0,1,0,2.374Zm8.1-6.516-2.92,2.92A1.187,1.187,0,1,1,18.7,17.086l.856-.855h-5.09a1.187,1.187,0,1,1,0-2.374H19.63l-.941-.942a1.187,1.187,0,1,1,1.679-1.678l2.93,2.93A1.187,1.187,0,0,1,23.295,15.844Z" fill="#00fbff"/>
    </g>
  </g>
</svg>
