<svg xmlns="http://www.w3.org/2000/svg" xmlns:xlink="http://www.w3.org/1999/xlink" width="30.002" height="29.999" viewBox="0 0 30.002 29.999">
  <defs>
    <linearGradient id="linear-gradient" x1="0.5" x2="0.5" y2="1" gradientUnits="objectBoundingBox">
      <stop offset="0" stop-color="#ffee81"/>
      <stop offset="1" stop-color="#de9400"/>
    </linearGradient>
  </defs>
  <path id="Subtraction_19" data-name="Subtraction 19" d="M-9933-4811a14.9,14.9,0,0,1-10.606-4.394A14.9,14.9,0,0,1-9948-4826a14.9,14.9,0,0,1,4.394-10.606A14.9,14.9,0,0,1-9933-4841a14.9,14.9,0,0,1,10.608,4.394A14.9,14.9,0,0,1-9918-4826a14.9,14.9,0,0,1-4.394,10.606A14.9,14.9,0,0,1-9933-4811Zm-7.353-9.013v1.855a.489.489,0,0,0,.489.487h13.729a.489.489,0,0,0,.489-.487v-1.855Zm-.977-2.929v1.463a.49.49,0,0,0,.489.489h15.682a.49.49,0,0,0,.489-.489v-1.463Zm1.466-4.881a.489.489,0,0,0-.475.37l-.884,3.535h16.445l-.884-3.535a.489.489,0,0,0-.475-.37h-1.657v1.953a.5.5,0,0,1,.486.464.489.489,0,0,1-.135.361.482.482,0,0,1-.352.15h-10.4a.5.5,0,0,1-.5-.464.489.489,0,0,1,.135-.361.483.483,0,0,1,.353-.151v-1.953Zm3.123-6.506a.489.489,0,0,0-.489.487v7.972h8.461v-7.972a.489.489,0,0,0-.489-.487Zm3.253,5.725a.479.479,0,0,1-.344-.142l-.977-.977a.489.489,0,0,1,0-.689.48.48,0,0,1,.345-.145.483.483,0,0,1,.345.145l.631.629,1.608-1.605a.479.479,0,0,1,.345-.144.477.477,0,0,1,.344.144.484.484,0,0,1,.145.345.483.483,0,0,1-.145.344l-1.952,1.953A.482.482,0,0,1-9933.488-4828.6Z" transform="translate(9948.001 4840.999)" fill="url(#linear-gradient)"/>
</svg>
