<svg xmlns="http://www.w3.org/2000/svg" xmlns:xlink="http://www.w3.org/1999/xlink" width="30" height="30" viewBox="0 0 30 30">
  <defs>
    <clipPath id="clip-path">
      <circle id="Ellipse_24" data-name="Ellipse 24" cx="15" cy="15" r="15" transform="translate(1418 26)" fill="#fff" stroke="#707070" stroke-width="1"/>
    </clipPath>
  </defs>
  <g id="Mask_Group_1" data-name="Mask Group 1" transform="translate(-1418 -26)" clip-path="url(#clip-path)">
    <g id="Group_19045" data-name="Group 19045" transform="translate(-662.997 -2064.538)">
      <path id="Path_82985" data-name="Path 82985" d="M2073,2181.043v7.044l10.566-7.044Z" transform="translate(0 -71.021)" fill="#00247d"/>
      <path id="Path_82986" data-name="Path 82986" d="M2211.943,2089.538h-13.126v8.753Z" transform="translate(-97.654 0)" fill="#00247d"/>
      <path id="Path_82987" data-name="Path 82987" d="M2094.428,2196.461h13.126v-8.75Z" transform="translate(-16.634 -76.197)" fill="#00247d"/>
      <path id="Path_82988" data-name="Path 82988" d="M2073,2103.825v7.044h10.566Z" transform="translate(0 -11.088)" fill="#00247d"/>
      <path id="Path_82989" data-name="Path 82989" d="M2107.554,2089.538h-13.126l13.126,8.753Z" transform="translate(-16.634 0)" fill="#00247d"/>
      <path id="Path_82990" data-name="Path 82990" d="M2242.252,2188.087v-7.044h-10.565Z" transform="translate(-123.165 -71.021)" fill="#00247d"/>
      <path id="Path_82991" data-name="Path 82991" d="M2242.252,2110.869v-7.044l-10.565,7.044Z" transform="translate(-123.165 -11.088)" fill="#00247d"/>
      <path id="Path_82992" data-name="Path 82992" d="M2198.817,2196.461h13.126l-13.126-8.75Z" transform="translate(-97.654 -76.197)" fill="#00247d"/>
      <path id="Path_82993" data-name="Path 82993" d="M2090.921,2099.78v-1.489l-13.126-8.753H2073l15.363,10.242Z" transform="translate(0 0)" fill="#fff"/>
      <path id="Path_82994" data-name="Path 82994" d="M2085.162,2107.167,2073,2099.056v1.067l10.566,7.043Z" transform="translate(0 -7.387)" fill="#fff"/>
      <path id="Path_82995" data-name="Path 82995" d="M2198.817,2181.043v1.493l13.126,8.75h4.8l-15.363-10.242Z" transform="translate(-97.654 -71.021)" fill="#fff"/>
      <path id="Path_82996" data-name="Path 82996" d="M2102.009,2182.942l-14.725,9.817h1.6l13.126-8.749Z" transform="translate(-11.089 -72.495)" fill="#fff"/>
      <path id="Path_82997" data-name="Path 82997" d="M2083.563,2181.043,2073,2188.087v3.2l15.363-10.242Z" transform="translate(0 -71.021)" fill="#fff"/>
      <path id="Path_82998" data-name="Path 82998" d="M2224.542,2181.043l12.165,8.112v-1.068l-10.565-7.044Z" transform="translate(-117.62 -71.021)" fill="#fff"/>
      <path id="Path_82999" data-name="Path 82999" d="M2215.052,2099.78l10.566-7.044v-3.2l-15.363,10.242Z" transform="translate(-106.532 0)" fill="#fff"/>
      <path id="Path_83000" data-name="Path 83000" d="M2198.817,2099.355l14.725-9.817h-1.6l-13.126,8.753Z" transform="translate(-97.654 0)" fill="#fff"/>
      <path id="Path_83001" data-name="Path 83001" d="M2088.36,2099.78,2073,2089.538v2.13l12.165,8.112Z" transform="translate(0 0)" fill="#cf142b"/>
      <path id="Path_83002" data-name="Path 83002" d="M2213.453,2181.043h-3.2l15.363,10.242v-2.131Z" transform="translate(-106.532 -71.021)" fill="#cf142b"/>
      <path id="Path_83003" data-name="Path 83003" d="M2090.921,2181.043h-2.561L2073,2191.286h3.2l14.726-9.817Z" transform="translate(0 -71.021)" fill="#cf142b"/>
      <path id="Path_83004" data-name="Path 83004" d="M2198.817,2099.78h2.56l15.363-10.242h-3.2l-14.725,9.817Z" transform="translate(-97.654 0)" fill="#cf142b"/>
      <path id="Path_83005" data-name="Path 83005" d="M2189.67,2101.828h19.971v-2.047h-17.924v-10.242h-2.048Z" transform="translate(-90.555 0)" fill="#fff"/>
      <path id="Path_83006" data-name="Path 83006" d="M2191.718,2173.945h17.924V2171.9H2189.67v12.29h2.048v-10.242Z" transform="translate(-90.555 -63.922)" fill="#fff"/>
      <path id="Path_83007" data-name="Path 83007" d="M2092.969,2171.9H2073v2.047h17.924v10.242h2.048Z" transform="translate(0 -63.922)" fill="#fff"/>
      <path id="Path_83008" data-name="Path 83008" d="M2092.969,2101.828v-12.289h-2.048v10.242H2073v2.047Z" transform="translate(0 0)" fill="#fff"/>
      <path id="Path_83009" data-name="Path 83009" d="M2099.115,2107.975h19.972v-6.147h-19.972v-12.289h-6.146v12.289H2073v6.147h19.971v12.29h6.146Z" transform="translate(0 0)" fill="#cf142b"/>
    </g>
  </g>
</svg>
