<svg xmlns="http://www.w3.org/2000/svg" width="27.532" height="30.704" viewBox="0 0 27.532 30.704">
  <path id="Path_2392" data-name="Path 2392" d="M27.726,18.7V15.947H25.608v3.176a.964.964,0,0,0,.317.741l2.859,2.859v1.694H5.492V22.723l2.859-2.859a.964.964,0,0,0,.317-.741V13.83a8.47,8.47,0,0,1,8.47-8.47,8.352,8.352,0,0,1,4.234,1.153V4.089A10.281,10.281,0,0,0,18.2,3.242V1.125H16.08V3.242A10.746,10.746,0,0,0,6.551,13.83V18.7L3.692,21.559a.964.964,0,0,0-.317.741v3.176a.995.995,0,0,0,1.059,1.059h7.411a5.294,5.294,0,0,0,10.587,0h7.411A.995.995,0,0,0,30.9,25.476V22.3a.964.964,0,0,0-.317-.741ZM17.139,29.711a3.176,3.176,0,0,1-3.176-3.176h6.352a3.176,3.176,0,0,1-3.176,3.176Z" transform="translate(-3.373 -1.125)" fill="#00e2e5"/>
</svg>
