<svg id="Group_19035" data-name="Group 19035" xmlns="http://www.w3.org/2000/svg" width="20.221" height="20.221" viewBox="0 0 20.221 20.221">
  <g id="Group_19024" data-name="Group 19024" transform="translate(3.734 7.339)">
    <g id="Group_19023" data-name="Group 19023">
      <path id="Path_82979" data-name="Path 82979" d="M102.552,191.072a2.957,2.957,0,0,1-4.1-4.1l-1.14-1.14a14.293,14.293,0,0,0-2.768,2.771c.786,1.036,3.394,4.147,6.377,4.147a5.466,5.466,0,0,0,2.585-.724Z" transform="translate(-94.545 -185.832)" fill="#00fbff"/>
    </g>
  </g>
  <g id="Group_19026" data-name="Group 19026" transform="translate(8.333 9.349)">
    <g id="Group_19025" data-name="Group 19025">
      <path id="Path_82980" data-name="Path 82980" d="M211.178,236.721a1.756,1.756,0,0,0-.178.761,1.779,1.779,0,0,0,1.777,1.777,1.756,1.756,0,0,0,.761-.178Z" transform="translate(-211 -236.721)" fill="#00fbff"/>
    </g>
  </g>
  <g id="Group_19028" data-name="Group 19028" transform="translate(3.429)">
    <g id="Group_19027" data-name="Group 19027">
      <path id="Path_82981" data-name="Path 82981" d="M93.5,0a10.027,10.027,0,0,0-6.682,2.591l3.229,3.229A6.831,6.831,0,0,1,93.5,4.779c4.193,0,7.464,4.8,7.6,5a.592.592,0,0,1,0,.661,15.312,15.312,0,0,1-3.146,3.287l3.064,3.064a10.027,10.027,0,0,0,2.591-6.682A10.133,10.133,0,0,0,93.5,0Z" transform="translate(-86.814)" fill="#00fbff"/>
    </g>
  </g>
  <g id="Group_19030" data-name="Group 19030" transform="translate(9.349 8.333)">
    <g id="Group_19029" data-name="Group 19029">
      <path id="Path_82982" data-name="Path 82982" d="M237.482,211a1.757,1.757,0,0,0-.761.178l2.361,2.361a1.757,1.757,0,0,0,.178-.761A1.779,1.779,0,0,0,237.482,211Z" transform="translate(-236.721 -211)" fill="#00fbff"/>
    </g>
  </g>
  <g id="Group_19032" data-name="Group 19032" transform="translate(0 3.429)">
    <g id="Group_19031" data-name="Group 19031">
      <path id="Path_82983" data-name="Path 82983" d="M13.564,97.787a6.831,6.831,0,0,1-3.453,1.041c-4.193,0-7.464-4.8-7.6-5a.592.592,0,0,1,0-.661,15.312,15.312,0,0,1,3.146-3.287L2.591,86.814A10.027,10.027,0,0,0,0,93.5a10.133,10.133,0,0,0,10.11,10.11,10.027,10.027,0,0,0,6.682-2.591Z" transform="translate(0 -86.814)" fill="#00fbff"/>
    </g>
  </g>
  <g id="Group_19034" data-name="Group 19034" transform="translate(7.526 5.964)">
    <g id="Group_19033" data-name="Group 19033">
      <path id="Path_82984" data-name="Path 82984" d="M193.136,151a5.466,5.466,0,0,0-2.585.724l.954.954a2.957,2.957,0,0,1,4.1,4.1l1.14,1.14a14.3,14.3,0,0,0,2.768-2.771C198.727,154.111,196.118,151,193.136,151Z" transform="translate(-190.551 -151)" fill="#00fbff"/>
    </g>
  </g>
</svg>
