<svg xmlns="http://www.w3.org/2000/svg" width="30" height="30" viewBox="0 0 30 30">
  <g id="Group_19066" data-name="Group 19066" transform="translate(-0.105 -0.829)">
    <rect id="Rectangle_2436" data-name="Rectangle 2436" width="30" height="30" rx="15" transform="translate(0.105 0.829)" fill="#009393"/>
    <g id="camera-181" transform="translate(5.912 7.439)">
      <path id="Path_79079" data-name="Path 79079" d="M80.967,137.127H79.122a1.477,1.477,0,0,0-1.476-1.476H75.434a1.477,1.477,0,0,0-1.475,1.475H65.475A1.477,1.477,0,0,0,64,138.6v11.065a1.477,1.477,0,0,0,1.475,1.475H80.967a1.477,1.477,0,0,0,1.475-1.475V138.6A1.477,1.477,0,0,0,80.967,137.127Zm-13.094,4.056a.922.922,0,1,1,.922-.922A.922.922,0,0,1,67.873,141.183Zm6.086,7.746a4.425,4.425,0,1,1,4.425-4.425A4.425,4.425,0,0,1,73.959,148.928Z" transform="translate(-64 -135.65)" fill="#fff"/>
      <path id="Path_79080" data-name="Path 79080" d="M398.655,413.41a3.135,3.135,0,1,0,3.135,3.135A3.139,3.139,0,0,0,398.655,413.41Zm0,5.533a2.4,2.4,0,1,1,2.4-2.4A2.4,2.4,0,0,1,398.655,418.943Z" transform="translate(-388.697 -407.693)" fill="#fff"/>
    </g>
  </g>
</svg>
