<svg xmlns="http://www.w3.org/2000/svg" width="34.059" height="34.059" viewBox="0 0 34.059 34.059">
  <g id="Group_19022" data-name="Group 19022" transform="translate(-23 -21)">
    <path id="Path_82973" data-name="Path 82973" d="M281.7,213.9H267.809a1.108,1.108,0,0,0-1.109,1.109v4.442a1.108,1.108,0,0,0,1.109,1.109h7.826a10.431,10.431,0,0,1-4.493,5.266l3.333,5.776a16.7,16.7,0,0,0,8.511-14.6,11.505,11.505,0,0,0-.19-2.181A1.122,1.122,0,0,0,281.7,213.9Z" transform="translate(-225.926 -178.831)" fill="#167ee6"/>
    <path id="Path_82974" data-name="Path 82974" d="M69.14,330.685a10.363,10.363,0,0,1-8.963-5.185L54.4,328.826a17.014,17.014,0,0,0,23.258,6.243v-.007l-3.333-5.776a10.276,10.276,0,0,1-5.185,1.4Z" transform="translate(-29.11 -282.292)" fill="#12b347"/>
    <path id="Path_82975" data-name="Path 82975" d="M265.011,383.184v-.007l-3.333-5.776a10.3,10.3,0,0,1-5.178,1.4v6.666A16.954,16.954,0,0,0,265.011,383.184Z" transform="translate(-216.47 -330.407)" fill="#0f993e"/>
    <path id="Path_82976" data-name="Path 82976" d="M29.666,146.4a10.3,10.3,0,0,1,1.4-5.178L25.29,137.9a16.934,16.934,0,0,0,0,17.008l5.776-3.326A10.229,10.229,0,0,1,29.666,146.4Z" transform="translate(0 -108.374)" fill="#ffd500"/>
    <path id="Path_82977" data-name="Path 82977" d="M69.14,27.666a10.32,10.32,0,0,1,6.578,2.363,1.108,1.108,0,0,0,1.488-.066l3.143-3.143a1.117,1.117,0,0,0-.066-1.634A16.973,16.973,0,0,0,54.4,29.526l5.776,3.326A10.363,10.363,0,0,1,69.14,27.666Z" transform="translate(-29.11)" fill="#ff4b26"/>
    <path id="Path_82978" data-name="Path 82978" d="M263.078,30.029a1.108,1.108,0,0,0,1.488-.066l3.143-3.143a1.117,1.117,0,0,0-.066-1.634A16.923,16.923,0,0,0,256.5,21v6.666a10.28,10.28,0,0,1,6.578,2.363Z" transform="translate(-216.47)" fill="#d93f21"/>
  </g>
</svg>
